<svg xmlns="http://www.w3.org/2000/svg" xmlns:xlink="http://www.w3.org/1999/xlink" width="2000" zoomAndPan="magnify" viewBox="0 0 1500 1499.999933" height="2000" preserveAspectRatio="xMidYMid meet" version="1.0"><defs><clipPath id="6d5c8e87ab"><path d="M 306.25 286.957031 L 1193.5 286.957031 L 1193.5 1213 L 306.25 1213 Z M 306.25 286.957031 " clip-rule="nonzero"/></clipPath></defs><g clip-path="url(#6d5c8e87ab)"><path fill="#000000" d="M 793.472656 429.191406 C 817.089844 424.113281 836.066406 413.4375 860.757812 408.9375 C 926.601562 396.941406 997.773438 420.492188 1054.835938 453.710938 C 1128.292969 496.476562 1193.417969 630.421875 1193.65625 714.214844 C 1193.914062 805.289062 1154.015625 917.441406 1104.417969 992.941406 C 1051.828125 1073.007812 926.226562 1174.21875 832.617188 1198.359375 C 741.042969 1221.976562 622.765625 1219.605469 539.820312 1171.886719 C 383.238281 1081.792969 316.714844 891.710938 405.1875 728.390625 C 408.023438 723.160156 426.324219 699.695312 424.9375 698.554688 C 422.457031 696.515625 373.839844 706.492188 361.261719 706.867188 C 345.9375 707.332031 329.34375 704.785156 313.976562 703.152344 C 307.5 702.464844 305.382812 705.816406 306.726562 696.117188 C 310.484375 669.066406 332.75 659.839844 352.855469 647.683594 C 375.6875 633.882812 394.320312 621.175781 415.714844 601.84375 C 442.476562 577.667969 467.511719 543.730469 504.15625 529.683594 C 514.496094 525.722656 541.539062 524.925781 543.085938 523.703125 C 550.894531 517.496094 512.316406 434.84375 507.667969 419.710938 C 499.441406 392.9375 488.59375 358.6875 504.992188 333.125 C 509.203125 326.566406 547.523438 310.746094 557.039062 308.296875 C 562.40625 306.910156 565.425781 304.6875 569.140625 310.980469 C 578.601562 326.996094 580.835938 384.546875 586.59375 406.941406 C 591.296875 414.726562 612.660156 476.664062 616.4375 476.566406 C 634.019531 476.105469 686 432.15625 698.953125 417.367188 C 729.980469 381.9375 733.09375 335.832031 756.421875 300.015625 C 768.761719 281.058594 774.34375 283.089844 779.511719 303.808594 C 789.53125 343.984375 806.886719 389.347656 793.484375 429.183594 Z M 552.496094 339.453125 C 548.886719 335.820312 520.148438 348.632812 516.839844 353.425781 C 511.222656 361.574219 523.894531 397.316406 527.601562 409.226562 C 537.589844 441.308594 566.574219 500.238281 564.707031 530.984375 C 562.914062 560.605469 536.664062 556.664062 518.203125 562.644531 C 492.726562 570.902344 467.15625 587.292969 446.226562 604.066406 C 424.671875 621.335938 402.308594 645.835938 382.410156 665.433594 C 416.035156 665.832031 451.894531 653.320312 482.773438 640.617188 C 497.699219 634.472656 533.367188 618.480469 544.375 608.890625 C 559.398438 595.796875 564.640625 565.757812 595.011719 570.980469 C 597.203125 583.265625 584.371094 583.5 578.644531 590.019531 C 557.371094 614.292969 549.507812 668.238281 537.246094 699.8125 C 534.269531 707.46875 512.832031 744.007812 514.703125 745.757812 C 517.871094 748.722656 537.277344 734.847656 540.894531 731.699219 C 572.09375 704.550781 595.863281 660.816406 623.410156 630.070312 C 630.335938 622.335938 641.429688 607.515625 651.707031 615.839844 C 644.253906 621.820312 639.335938 628.050781 644.210938 637.308594 L 703.667969 731.589844 L 699.199219 602.1875 C 698.125 594.628906 655.046875 597.945312 679.8125 573.0625 C 696.707031 556.09375 757.074219 563.460938 781.746094 561.601562 C 788.746094 561.078125 794.792969 557.757812 800.894531 557.136719 C 827.269531 554.429688 860.089844 557.480469 878.5 533.1875 C 852.734375 531.855469 826.140625 534.894531 800.441406 533.261719 C 778.78125 531.886719 745.453125 522.820312 725.039062 523.390625 C 716.113281 523.636719 691.789062 535.378906 689.511719 533.152344 C 682.164062 525.957031 708.347656 502.976562 717.703125 502.308594 C 726.8125 482.558594 752.929688 469.84375 760.652344 450.757812 C 774.269531 417.089844 758.03125 374.226562 755.613281 339.453125 L 729.839844 401.054688 C 708.628906 442.210938 675.625 470.464844 634.105469 489.582031 C 627.050781 492.835938 617.71875 492.859375 612.378906 495.4375 C 607.4375 497.820312 611.101562 508.324219 602.121094 504.800781 C 571.492188 492.785156 556.746094 395.953125 552.859375 365.054688 C 552.066406 358.761719 553.355469 340.375 552.453125 339.464844 Z M 1097.707031 578.796875 C 1071.492188 536.613281 1050.6875 511.503906 1004.648438 489.722656 C 956.769531 467.074219 900.75 449.503906 848.167969 457.921875 C 819.453125 462.519531 788.84375 474.484375 760.394531 481.238281 L 767.394531 490.667969 C 816.132812 493.824219 865.179688 493.167969 914.035156 495.359375 C 920.835938 495.660156 922.425781 493.597656 921.125 502.492188 C 918.621094 519.730469 885.609375 564.234375 871.378906 575.640625 C 842.101562 599.117188 794.050781 602.628906 757.3125 602.414062 C 749.351562 602.371094 721.804688 595.636719 717.84375 599.308594 C 714.472656 602.445312 732.609375 677.816406 730.601562 690.597656 C 727.574219 706.945312 721.183594 793.472656 705.996094 797.75 C 700.242188 799.371094 690.5625 787.8125 687.363281 783.355469 C 668.28125 756.828125 645.273438 714.097656 630.398438 684.402344 C 626.972656 677.550781 625.050781 668.300781 623.324219 660.753906 L 585.53125 715.042969 C 563.425781 736.929688 543.785156 761.671875 519.0625 780.875 C 510.878906 787.234375 466.75 814.976562 459.691406 816.101562 C 455.449219 816.777344 448.707031 812.214844 448.609375 809.59375 C 448.554688 808.175781 458.886719 786.644531 460.605469 783.839844 C 471.011719 766.765625 491.117188 755.539062 503.058594 731.796875 C 507.71875 722.527344 531.765625 654.371094 528.855469 651.300781 C 525.882812 648.164062 488.820312 671.050781 483.933594 674.855469 C 412.890625 730.171875 394.382812 791.003906 401.6875 880.058594 C 411.621094 1001.277344 534.527344 1141.71875 658.730469 1152.203125 C 747.945312 1159.730469 831.296875 1147.21875 910.105469 1105.753906 C 1116.8125 996.96875 1231.503906 794.0625 1097.695312 578.796875 Z M 1097.707031 578.796875 " fill-opacity="1" fill-rule="nonzero"/></g><path fill="#000000" d="M 574.757812 1030.648438 C 549.5625 1004.335938 531.722656 981.761719 521.757812 944.269531 C 514.464844 916.851562 506.871094 883.460938 526.515625 859.242188 C 541.304688 886.039062 549.671875 916.636719 565.726562 942.832031 C 585.402344 974.921875 623.730469 1010.296875 658.625 1024.753906 C 683.839844 1035.203125 732.921875 1033.871094 712.074219 1073.113281 C 696.964844 1101.5625 642.203125 1081.976562 619.027344 1069.078125 C 596.386719 1056.480469 590.738281 1047.316406 574.769531 1030.648438 Z M 574.757812 1030.648438 " fill-opacity="1" fill-rule="nonzero"/><path fill="#000000" d="M 765.121094 1015.085938 C 767.71875 1012.5 827.96875 1019.222656 836.292969 1021.898438 C 842.390625 1023.863281 859.488281 1042.988281 859.585938 1045.8125 C 859.671875 1048.15625 838.945312 1061.355469 833.597656 1062.277344 C 818.582031 1064.855469 770.820312 1062.09375 765.9375 1045.019531 C 764.550781 1040.1875 764.066406 1016.140625 765.121094 1015.085938 Z M 765.121094 1015.085938 " fill-opacity="1" fill-rule="nonzero"/></svg>